<svg width="55" height="54" viewBox="0 0 55 54" fill="none" xmlns="http://www.w3.org/2000/svg">
<path d="M45.74 4.53107C47.5245 4.53107 49.2359 5.23996 50.4978 6.50179C51.7596 7.76362 52.4685 9.47503 52.4685 11.2595V15.7452H47.9828V42.659C47.9828 44.4435 47.274 46.1549 46.0121 47.4167C44.7503 48.6786 43.0389 49.3874 41.2544 49.3874H9.85492C8.07042 49.3874 6.35901 48.6786 5.09718 47.4167C3.83535 46.1549 3.12646 44.4435 3.12646 42.659V38.1734H39.0116V42.659C39.0116 43.2083 39.2133 43.7385 39.5784 44.1491C39.9434 44.5596 40.4464 44.8218 40.992 44.8861L41.2544 44.9018C41.8037 44.9017 42.3339 44.7001 42.7445 44.335C43.155 43.97 43.4172 43.467 43.4815 42.9214L43.4972 42.659V33.6877H7.6121V11.2595C7.6121 9.47503 8.32099 7.76362 9.58282 6.50179C10.8447 5.23996 12.5561 4.53107 14.3406 4.53107H45.74Z" fill="black" fill-opacity="0.35"/>
</svg>
