<svg width="48" height="47" viewBox="0 0 48 47" fill="none" xmlns="http://www.w3.org/2000/svg">
<g clip-path="url(#clip0_66_18637)">
<path d="M12.5913 1.88477C12.5913 1.49988 12.4384 1.13075 12.1663 0.85859C11.8941 0.58643 11.525 0.433533 11.1401 0.433533C10.7552 0.433533 10.3861 0.58643 10.1139 0.85859C9.84176 1.13075 9.68886 1.49988 9.68886 1.88477V3.336H6.78639C5.24682 3.336 3.77031 3.94759 2.68167 5.03623C1.59304 6.12487 0.981445 7.60138 0.981445 9.14095L0.981445 12.0434H47.421V9.14095C47.421 7.60138 46.8094 6.12487 45.7208 5.03623C44.6321 3.94759 43.1556 3.336 41.616 3.336H38.7136V1.88477C38.7136 1.49988 38.5607 1.13075 38.2885 0.85859C38.0164 0.58643 37.6472 0.433533 37.2623 0.433533C36.8774 0.433533 36.5083 0.58643 36.2362 0.85859C35.964 1.13075 35.8111 1.49988 35.8111 1.88477V3.336H12.5913V1.88477ZM47.421 41.0681V14.9459H0.981445V41.0681C0.981445 42.6077 1.59304 44.0842 2.68167 45.1728C3.77031 46.2615 5.24682 46.8731 6.78639 46.8731H41.616C43.1556 46.8731 44.6321 46.2615 45.7208 45.1728C46.8094 44.0842 47.421 42.6077 47.421 41.0681ZM28.5549 20.7508H31.4574C31.8423 20.7508 32.2114 20.9037 32.4836 21.1759C32.7557 21.448 32.9086 21.8172 32.9086 22.2021V25.1045C32.9086 25.4894 32.7557 25.8586 32.4836 26.1307C32.2114 26.4029 31.8423 26.5558 31.4574 26.5558H28.5549C28.17 26.5558 27.8009 26.4029 27.5287 26.1307C27.2566 25.8586 27.1037 25.4894 27.1037 25.1045V22.2021C27.1037 21.8172 27.2566 21.448 27.5287 21.1759C27.8009 20.9037 28.17 20.7508 28.5549 20.7508ZM37.2623 20.7508H40.1648C40.5497 20.7508 40.9188 20.9037 41.191 21.1759C41.4632 21.448 41.616 21.8172 41.616 22.2021V25.1045C41.616 25.4894 41.4632 25.8586 41.191 26.1307C40.9188 26.4029 40.5497 26.5558 40.1648 26.5558H37.2623C36.8774 26.5558 36.5083 26.4029 36.2362 26.1307C35.964 25.8586 35.8111 25.4894 35.8111 25.1045V22.2021C35.8111 21.8172 35.964 21.448 36.2362 21.1759C36.5083 20.9037 36.8774 20.7508 37.2623 20.7508ZM6.78639 30.9095C6.78639 30.5246 6.93929 30.1555 7.21145 29.8833C7.48361 29.6111 7.85273 29.4582 8.23762 29.4582H11.1401C11.525 29.4582 11.8941 29.6111 12.1663 29.8833C12.4384 30.1555 12.5913 30.5246 12.5913 30.9095V33.812C12.5913 34.1968 12.4384 34.566 12.1663 34.8381C11.8941 35.1103 11.525 35.2632 11.1401 35.2632H8.23762C7.85273 35.2632 7.48361 35.1103 7.21145 34.8381C6.93929 34.566 6.78639 34.1968 6.78639 33.812V30.9095ZM16.945 29.4582H19.8475C20.2324 29.4582 20.6015 29.6111 20.8737 29.8833C21.1458 30.1555 21.2987 30.5246 21.2987 30.9095V33.812C21.2987 34.1968 21.1458 34.566 20.8737 34.8381C20.6015 35.1103 20.2324 35.2632 19.8475 35.2632H16.945C16.5601 35.2632 16.191 35.1103 15.9189 34.8381C15.6467 34.566 15.4938 34.1968 15.4938 33.812V30.9095C15.4938 30.5246 15.6467 30.1555 15.9189 29.8833C16.191 29.6111 16.5601 29.4582 16.945 29.4582Z" fill="black" fill-opacity="0.35"/>
</g>
<defs>
<clipPath id="clip0_66_18637">
<rect width="46.4395" height="46.4395" fill="white" transform="translate(0.981445 0.433533)"/>
</clipPath>
</defs>
</svg>
