<svg width="54" height="54" viewBox="0 0 54 54" fill="none" xmlns="http://www.w3.org/2000/svg">
<path d="M27.3387 0.267212C12.7675 0.267212 0.952637 12.0821 0.952637 26.6533C0.952637 41.2246 12.7675 53.0394 27.3387 53.0394C41.91 53.0394 53.7248 41.2246 53.7248 26.6533C53.7248 12.0821 41.91 0.267212 27.3387 0.267212ZM37.7342 34.7635L36.0497 37.0605C36.0131 37.1105 35.9669 37.1528 35.9139 37.1849C35.8608 37.2171 35.802 37.2384 35.7407 37.2477C35.6794 37.257 35.6168 37.2541 35.5567 37.2392C35.4965 37.2242 35.4399 37.1975 35.39 37.1606L25.6484 30.0576C25.5877 30.014 25.5384 29.9565 25.5045 29.8899C25.4707 29.8232 25.4534 29.7495 25.454 29.6748V13.4603C25.454 13.2011 25.6661 12.9891 25.9252 12.9891H28.7582C29.0173 12.9891 29.2294 13.2011 29.2294 13.4603V28.0374L37.6281 34.1097C37.8402 34.257 37.8873 34.5515 37.7342 34.7635Z" fill="black" fill-opacity="0.35"/>
</svg>
