<svg width="58" height="58" viewBox="0 0 58 58" fill="none" xmlns="http://www.w3.org/2000/svg">
<g clip-path="url(#clip0_66_18632)">
<path d="M25.6276 49.9706C25.6276 49.9706 22.0654 49.9706 22.0654 46.4085C22.0654 42.8463 25.6276 32.16 39.8761 32.16C54.1245 32.16 57.6867 42.8463 57.6867 46.4085C57.6867 49.9706 54.1245 49.9706 54.1245 49.9706H25.6276ZM39.8761 28.5978C42.7103 28.5978 45.4284 27.472 47.4325 25.4679C49.4365 23.4638 50.5624 20.7457 50.5624 17.9115C50.5624 15.0773 49.4365 12.3591 47.4325 10.3551C45.4284 8.35098 42.7103 7.2251 39.8761 7.2251C37.0418 7.2251 34.3237 8.35098 32.3196 10.3551C30.3156 12.3591 29.1897 15.0773 29.1897 17.9115C29.1897 20.7457 30.3156 23.4638 32.3196 25.4679C34.3237 27.472 37.0418 28.5978 39.8761 28.5978Z" fill="black" fill-opacity="0.35"/>
<path fill-rule="evenodd" clip-rule="evenodd" d="M19.2729 49.9706C18.7448 48.8586 18.4815 47.6393 18.5035 46.4085C18.5035 41.5818 20.9257 36.6126 25.3998 33.1574C23.1666 32.4693 20.8401 32.1328 18.5035 32.16C4.255 32.16 0.692871 42.8463 0.692871 46.4085C0.692871 49.9706 4.255 49.9706 4.255 49.9706H19.2729Z" fill="black" fill-opacity="0.35"/>
<path d="M16.7222 28.5979C19.084 28.5979 21.3491 27.6596 23.0192 25.9895C24.6893 24.3195 25.6275 22.0544 25.6275 19.6925C25.6275 17.3307 24.6893 15.0656 23.0192 13.3955C21.3491 11.7255 19.084 10.7872 16.7222 10.7872C14.3604 10.7872 12.0953 11.7255 10.4252 13.3955C8.75513 15.0656 7.81689 17.3307 7.81689 19.6925C7.81689 22.0544 8.75513 24.3195 10.4252 25.9895C12.0953 27.6596 14.3604 28.5979 16.7222 28.5979Z" fill="black" fill-opacity="0.35"/>
</g>
<defs>
<clipPath id="clip0_66_18632">
<rect width="56.994" height="56.994" fill="white" transform="translate(0.692871 0.100891)"/>
</clipPath>
</defs>
</svg>
