<svg width="25" height="25" viewBox="0 0 25 25" fill="none" xmlns="http://www.w3.org/2000/svg">
<path d="M18.3333 17L23 12.3333M23 12.3333L18.3333 7.66667M23 12.3333H6.66667M13.6667 17V18.1667C13.6667 19.0949 13.2979 19.9852 12.6415 20.6415C11.9852 21.2979 11.0949 21.6667 10.1667 21.6667H5.5C4.57174 21.6667 3.6815 21.2979 3.02513 20.6415C2.36875 19.9852 2 19.0949 2 18.1667V6.5C2 5.57174 2.36875 4.6815 3.02513 4.02513C3.6815 3.36875 4.57174 3 5.5 3H10.1667C11.0949 3 11.9852 3.36875 12.6415 4.02513C13.2979 4.6815 13.6667 5.57174 13.6667 6.5V7.66667" stroke="#7C838F" stroke-width="2" stroke-linecap="round" stroke-linejoin="round"/>
</svg>
