<svg width="25" height="25" viewBox="0 0 25 25" fill="none" xmlns="http://www.w3.org/2000/svg">
<path d="M11.7345 1.29211C11.9455 1.10393 12.2178 1 12.5 1C12.7822 1 13.0545 1.10393 13.2655 1.29211L23.6412 10.5556C23.858 10.7626 23.9864 11.0461 23.999 11.3463C24.0116 11.6465 23.9075 11.9399 23.7088 12.1644C23.5101 12.389 23.2322 12.5272 22.9339 12.5498C22.6356 12.5724 22.3402 12.4777 22.1102 12.2856L21.7228 11.9417V20.6841C21.7228 21.2983 21.4799 21.8874 21.0475 22.3217C20.6151 22.756 20.0286 23 19.4171 23H5.58289C4.97138 23 4.38492 22.756 3.95252 22.3217C3.52011 21.8874 3.27719 21.2983 3.27719 20.6841V11.9417L2.88983 12.2856C2.65979 12.4777 2.36442 12.5724 2.06612 12.5498C1.76782 12.5272 1.48994 12.389 1.2912 12.1644C1.09246 11.9399 0.988405 11.6465 1.00103 11.3463C1.01365 11.0461 1.14196 10.7626 1.35885 10.5556L11.7345 1.29211ZM5.58289 9.88055V20.6841H9.04145V14.8944C9.04145 14.5873 9.16291 14.2928 9.37911 14.0756C9.59531 13.8585 9.88854 13.7365 10.1943 13.7365H14.8057C15.1115 13.7365 15.4047 13.8585 15.6209 14.0756C15.8371 14.2928 15.9586 14.5873 15.9586 14.8944V20.6841H19.4171V9.8817L12.5 3.70641L5.58289 9.88055ZM13.6529 20.6841V16.0524H11.3471V20.6841H13.6529Z" fill="#7C838F"/>
</svg>
