<svg width="25" height="25" viewBox="0 0 25 25" fill="none" xmlns="http://www.w3.org/2000/svg">
<path fill-rule="evenodd" clip-rule="evenodd" d="M6.74194 6.75717C6.74194 6.00113 6.89087 5.25249 7.18024 4.554C7.46961 3.8555 7.89375 3.22084 8.42843 2.68624C8.96312 2.15163 9.59788 1.72756 10.2965 1.43824C10.9951 1.14891 11.7438 1 12.5 1C13.2562 1 14.0049 1.14891 14.7035 1.43824C15.4021 1.72756 16.0369 2.15163 16.5716 2.68624C17.1063 3.22084 17.5304 3.8555 17.8198 4.554C18.1091 5.25249 18.2581 6.00113 18.2581 6.75717C18.2581 8.28407 17.6514 9.74842 16.5716 10.8281C15.4917 11.9078 14.0271 12.5143 12.5 12.5143C10.9729 12.5143 9.50828 11.9078 8.42843 10.8281C7.34859 9.74842 6.74194 8.28407 6.74194 6.75717ZM12.5 3.03194C11.5119 3.03194 10.5642 3.42442 9.86546 4.12304C9.16673 4.82165 8.77419 5.76918 8.77419 6.75717C8.77419 7.74516 9.16673 8.69269 9.86546 9.3913C10.5642 10.0899 11.5119 10.4824 12.5 10.4824C13.4881 10.4824 14.4358 10.0899 15.1345 9.3913C15.8333 8.69269 16.2258 7.74516 16.2258 6.75717C16.2258 5.76918 15.8333 4.82165 15.1345 4.12304C14.4358 3.42442 13.4881 3.03194 12.5 3.03194ZM7.08065 16.5782C6.27216 16.5782 5.49679 16.8993 4.92511 17.4709C4.35343 18.0425 4.03226 18.8178 4.03226 19.6261V21.2354C4.03226 21.2598 4.04987 21.2815 4.07426 21.2856C9.65484 22.1959 15.3465 22.1959 20.9257 21.2856C20.9376 21.2836 20.9483 21.2775 20.956 21.2683C20.9638 21.2591 20.9679 21.2474 20.9677 21.2354V19.6261C20.9677 18.8178 20.6466 18.0425 20.0749 17.4709C19.5032 16.8993 18.7278 16.5782 17.9194 16.5782H17.4587C17.4224 16.5779 17.3863 16.5834 17.3517 16.5945L16.1797 16.9778C13.7887 17.7584 11.2113 17.7584 8.82026 16.9778L7.64697 16.5945C7.61325 16.5837 7.57805 16.5782 7.54264 16.5782H7.08065ZM2 19.6261C2 18.2789 2.53528 16.9868 3.48809 16.0341C4.44089 15.0815 5.73317 14.5463 7.08065 14.5463H7.54129C7.79194 14.5463 8.04123 14.5869 8.27832 14.6628L9.45161 15.0461C11.4324 15.6926 13.5676 15.6926 15.5484 15.0461L16.7217 14.6628C16.9588 14.5856 17.2081 14.5463 17.4574 14.5463H17.9194C19.2668 14.5463 20.5591 15.0815 21.5119 16.0341C22.4647 16.9868 23 18.2789 23 19.6261V21.2354C23 22.2568 22.2603 23.1265 21.2523 23.2904C15.4558 24.2365 9.54421 24.2365 3.74774 23.2904C3.2599 23.211 2.81621 22.9607 2.49602 22.5842C2.17583 22.2077 2.00001 21.7296 2 21.2354V19.6261Z" fill="#7C838F"/>
</svg>
