<svg width="25" height="25" viewBox="0 0 25 25" fill="none" xmlns="http://www.w3.org/2000/svg">
<path fill-rule="evenodd" clip-rule="evenodd" d="M18 21.5357H8C7.33696 21.5357 6.70107 21.2761 6.23223 20.8139C5.76339 20.3518 5.5 19.725 5.5 19.0714V5.92857C5.5 5.275 5.76339 4.6482 6.23223 4.18606C6.70107 3.72392 7.33696 3.46429 8 3.46429H11.3333V7.57143C11.3333 8.87857 11.8601 10.1322 12.7978 11.0565C13.7355 11.9807 15.0073 12.5 16.3333 12.5H20.5V19.0714C20.5 19.725 20.2366 20.3518 19.7678 20.8139C19.2989 21.2761 18.663 21.5357 18 21.5357ZM20.1717 10.0357C20.0614 9.84465 19.9258 9.66896 19.7683 9.51329L14.3633 4.1855C14.2054 4.03027 14.0272 3.89656 13.8333 3.78793V7.57143C13.8333 8.225 14.0967 8.8518 14.5656 9.31394C15.0344 9.77609 15.6703 10.0357 16.3333 10.0357H20.1717ZM21.535 7.77021C21.9995 8.22796 22.368 8.77145 22.6194 9.36961C22.8707 9.96778 23.0001 10.6089 23 11.2564V19.0714C23 20.3786 22.4732 21.6322 21.5355 22.5565C20.5979 23.4807 19.3261 24 18 24H8C6.67392 24 5.40215 23.4807 4.46447 22.5565C3.52678 21.6322 3 20.3786 3 19.0714V5.92857C3 4.62143 3.52678 3.36783 4.46447 2.44355C5.40215 1.51926 6.67392 1 8 1H12.595C13.2518 0.999922 13.9023 1.12742 14.5091 1.37519C15.1159 1.62297 15.6673 1.98618 16.1317 2.44407L21.5333 7.76857L21.535 7.77021Z" fill="#7C838F"/>
</svg>
