<svg width="25" height="25" viewBox="0 0 25 25" fill="none" xmlns="http://www.w3.org/2000/svg">
<path fill-rule="evenodd" clip-rule="evenodd" d="M8.05769 8.33062C7.73637 8.33062 7.42821 8.20187 7.201 7.97269C6.9738 7.74351 6.84615 7.43268 6.84615 7.10858V5.89142C6.20351 5.89142 5.58719 6.14892 5.13278 6.60728C4.67836 7.06563 4.42308 7.68729 4.42308 8.33551V9.96489H20.5769V8.33551C20.5769 7.68729 20.3216 7.06563 19.8672 6.60728C19.4128 6.14892 18.7965 5.89142 18.1538 5.89142V7.11346C18.1538 7.43757 18.0262 7.7484 17.799 7.97758C17.5718 8.20676 17.2636 8.33551 16.9423 8.33551C16.621 8.33551 16.3128 8.20676 16.0856 7.97758C15.8584 7.7484 15.7308 7.43757 15.7308 7.11346V5.89142H9.26923V7.10858C9.26923 7.43268 9.14159 7.74351 8.91438 7.97269C8.68717 8.20187 8.37901 8.33062 8.05769 8.33062ZM15.7308 3.44734H9.26923V2.22204C9.26923 1.89794 9.14159 1.5871 8.91438 1.35793C8.68717 1.12875 8.37901 1 8.05769 1C7.73637 1 7.42821 1.12875 7.201 1.35793C6.9738 1.5871 6.84615 1.89794 6.84615 2.22204V3.44734C5.56087 3.44734 4.32824 3.96234 3.41941 4.87905C2.51058 5.79576 2 7.03908 2 8.33551V18.1118C2 19.4083 2.51058 20.6516 3.41941 21.5683C4.32824 22.485 5.56087 23 6.84615 23H18.1538C19.4391 23 20.6718 22.485 21.5806 21.5683C22.4894 20.6516 23 19.4083 23 18.1118V8.33551C23 7.03908 22.4894 5.79576 21.5806 4.87905C20.6718 3.96234 19.4391 3.44734 18.1538 3.44734V2.2253C18.1538 1.90119 18.0262 1.59036 17.799 1.36119C17.5718 1.13201 17.2636 1.00326 16.9423 1.00326C16.621 1.00326 16.3128 1.13201 16.0856 1.36119C15.8584 1.59036 15.7308 1.90119 15.7308 2.2253V3.44734ZM4.42308 12.409V18.1118C4.42308 18.76 4.67836 19.3817 5.13278 19.8401C5.58719 20.2984 6.20351 20.5559 6.84615 20.5559H18.1538C18.7965 20.5559 19.4128 20.2984 19.8672 19.8401C20.3216 19.3817 20.5769 18.76 20.5769 18.1118V12.409H4.42308Z" fill="#7C838F"/>
</svg>
