<svg width="25" height="25" viewBox="0 0 25 25" fill="none" xmlns="http://www.w3.org/2000/svg">
<path d="M17.1667 16.755C17.8368 16.755 18.38 16.2118 18.38 15.5417C18.38 14.8716 17.8368 14.3284 17.1667 14.3284C16.4966 14.3284 15.9534 14.8716 15.9534 15.5417C15.9534 16.2118 16.4966 16.755 17.1667 16.755Z" fill="#7C838F"/>
<path fill-rule="evenodd" clip-rule="evenodd" d="M17.1667 17.7084C16.3758 17.7084 14.7942 18.0984 14.74 18.8784C15.2817 19.6475 16.17 20.1459 17.1667 20.1459C18.1633 20.1459 19.0517 19.6475 19.5933 18.8784C19.5392 18.0984 17.9575 17.7084 17.1667 17.7084Z" fill="#7C838F"/>
<path fill-rule="evenodd" clip-rule="evenodd" d="M18.25 10.7642V5.5425L10.125 2L2 5.5425V10.8617C2 15.78 5.46667 20.3842 10.125 21.5C10.7208 21.3592 11.295 21.1533 11.8583 20.9042C12.4554 21.758 13.2498 22.455 14.174 22.9359C15.0982 23.4169 16.1248 23.6676 17.1667 23.6667C20.7525 23.6667 23.6667 20.7525 23.6667 17.1667C23.6667 13.9492 21.3267 11.2842 18.25 10.7642ZM10.6667 17.1667C10.6667 17.7733 10.7533 18.3692 10.9158 18.9217C10.6558 19.0408 10.3958 19.16 10.125 19.2467C6.69083 18.1633 4.16667 14.6533 4.16667 10.8617V6.96167L10.125 4.36167L16.0833 6.96167V10.7642C13.0067 11.2842 10.6667 13.9492 10.6667 17.1667ZM17.1667 21.5C14.7725 21.5 12.8333 19.5608 12.8333 17.1667C12.8333 14.7725 14.7725 12.8333 17.1667 12.8333C19.5608 12.8333 21.5 14.7725 21.5 17.1667C21.5 19.5608 19.5608 21.5 17.1667 21.5Z" fill="#7C838F"/>
</svg>
