<svg width="25" height="25" viewBox="0 0 25 25" fill="none" xmlns="http://www.w3.org/2000/svg">
<path d="M22 12.125V17.75C22 19.8718 22 20.9315 21.3407 21.5907C20.6815 22.25 19.6218 22.25 17.5 22.25H6.8125C6.06658 22.25 5.35121 21.9537 4.82376 21.4262C4.29632 20.8988 4 20.1834 4 19.4375M22 12.125C22 14.2468 22 15.3065 21.3407 15.9657C20.6815 16.625 19.6218 16.625 17.5 16.625H6.8125C6.06658 16.625 5.35121 16.9213 4.82376 17.4488C4.29632 17.9762 4 18.6916 4 19.4375M22 12.125V6.5C22 4.37825 22 3.3185 21.3407 2.65925C20.6815 2 19.6218 2 17.5 2H8.5C6.37825 2 5.3185 2 4.65925 2.65925C4 3.3185 4 4.37825 4 6.5V19.4375" stroke="#7C838F" stroke-width="2"/>
<path d="M9.62488 7.625H16.3749" stroke="#7C838F" stroke-width="2" stroke-linecap="round"/>
</svg>
