<svg width="157" height="34" viewBox="0 0 157 34" fill="none" xmlns="http://www.w3.org/2000/svg">
<path d="M8.34576 8.3196C7.99537 7.20541 7.39545 6.18905 6.5991 5.40639C5.33024 4.12915 3.58358 3.37367 1.68295 3.37367C0.764496 3.37367 0 2.61819 0 1.67248C0 0.753949 0.759187 0.00390625 1.68295 0.00390625C4.50735 0.00390625 7.07691 1.15071 8.94568 3.01495V3.04756C9.32793 3.40628 9.67301 3.83565 9.99155 4.2922C9.17397 5.49879 8.60059 6.8793 8.34576 8.3196ZM29.1889 10.7437L29.1571 11.0698C28.52 20.7008 15.7678 24.3694 10.2835 15.9831C11.3294 14.4123 11.9346 12.5101 11.9665 10.5154C12.1576 18.081 22.3403 19.7496 25.2603 13.1677C25.6744 12.2492 25.8655 11.3361 25.8655 10.3523C25.8973 4.6183 30.4312 0.00390625 36.1437 0.00390625C38.331 0.00390625 38.331 3.3791 36.1437 3.3791C34.4608 3.3791 32.9371 3.93348 31.7638 4.91723C30.1764 6.22709 29.2261 8.16198 29.1942 10.3523C29.1889 10.4828 29.1889 10.6132 29.1889 10.7437ZM11.9612 10.1512V10.3469C11.9612 10.2817 11.9612 10.2164 11.9612 10.1512Z" fill="#F0873F"/>
<path d="M18.9107 3.37327C15.0404 3.37327 11.9612 6.48757 11.9612 10.3519C11.9612 16.0207 7.33171 20.6677 1.68293 20.6677C-0.536237 20.6677 -0.536237 17.3252 1.68293 17.3252C5.52134 17.3252 8.63242 14.1782 8.63242 10.3465C8.63242 0.161121 21.9262 -3.93694 27.5059 4.67768C26.4919 6.24843 25.8548 8.21593 25.8548 10.2106C25.7964 6.41692 22.7491 3.37327 18.9107 3.37327ZM36.1384 20.6677C37.0568 20.6677 37.7895 19.9123 37.7895 18.9992C37.7895 18.0806 37.0621 17.3306 36.1384 17.3306C34.2006 17.3306 32.4592 16.5425 31.2222 15.2653C30.4312 14.4772 29.826 13.4662 29.4756 12.352C29.1889 13.7923 28.6527 15.1674 27.7926 16.4121C28.1112 16.836 28.4562 17.2654 28.8385 17.6241H28.8704V17.6513C30.7444 19.5209 33.314 20.6677 36.1384 20.6677Z" fill="#FE346E"/>
<path fill-rule="evenodd" clip-rule="evenodd" d="M19.1339 21.8798C19.9886 21.8798 20.7213 22.4341 20.7213 23.0918V32.788C20.7213 33.4457 19.994 34 19.1339 34C18.2473 34 17.5146 33.4457 17.5146 32.788V23.0918C17.5146 22.4341 18.2473 21.8798 19.1339 21.8798Z" fill="#FE346E"/>
<path d="M49.2725 17.1295H50.8599C51.3059 17.1295 51.6828 17.0642 52.0332 16.9012C52.3836 16.7055 52.6703 16.412 52.8879 15.9501C53.1109 15.5261 53.2702 14.9011 53.3658 14.151C53.4932 13.3629 53.5569 12.3846 53.5569 11.2052V9.69969C53.5569 8.68333 53.525 7.83002 53.4295 7.11259C53.3658 6.38972 53.2383 5.80273 53.0472 5.34618C52.8561 4.88963 52.5694 4.55809 52.2562 4.36243C51.9058 4.16677 51.497 4.06893 50.9555 4.06893H49.2725V17.1295ZM45.811 3.17758C45.811 2.51993 45.9703 2.03077 46.257 1.73728C46.5755 1.44378 47.0162 1.31334 47.6533 1.31334H52.1606C53.9391 1.31334 55.208 1.97099 55.9672 3.28084C56.7582 4.5907 57.1405 6.62343 57.1405 9.43881V11.8303C57.1405 14.613 56.6945 16.6457 55.776 17.9556C54.8894 19.2328 53.6206 19.8905 52.0013 19.8905H47.6533C47.0162 19.8905 46.5755 19.7274 46.257 19.4339C45.9703 19.1731 45.811 18.6785 45.811 18.0263V3.17758ZM63.0388 16.7708H68.3372C68.9742 16.7708 69.4467 16.9338 69.7016 17.2273C69.9883 17.5208 70.1157 17.8849 70.1157 18.3415C70.1157 18.7654 69.9883 19.1622 69.7016 19.4231C69.4467 19.7166 68.9742 19.8796 68.3372 19.8796H61.4514C60.8143 19.8796 60.3418 19.7166 60.0551 19.4231C59.7366 19.1622 59.6091 18.6676 59.6091 18.0154V3.17758C59.6091 2.51993 59.7366 2.03077 60.0551 1.73728C60.3418 1.44378 60.8143 1.31334 61.4514 1.31334H68.146C68.8097 1.31334 69.2556 1.44378 69.5423 1.73728C69.7971 2.03077 69.9564 2.42753 69.9564 2.85147C69.9564 3.30802 69.7971 3.67217 69.5423 3.96567C69.2556 4.25916 68.815 4.42222 68.146 4.42222H63.0388V8.67789H67.8275C68.4646 8.67789 68.9371 8.84095 69.1919 9.13444C69.4786 9.42794 69.606 9.79209 69.606 10.216C69.606 10.6726 69.4786 11.0367 69.1919 11.3302C68.9371 11.6237 68.4646 11.7868 67.8275 11.7868H63.0388V16.7708ZM82.1087 1.3079C82.7724 1.3079 83.2183 1.43835 83.505 1.73184C83.7598 2.02534 83.9191 2.4221 83.9191 2.84604C83.9191 3.30259 83.7598 3.66673 83.505 3.96023C83.2183 4.25373 82.7777 4.41678 82.1087 4.41678H79.3799V18.4339C79.3799 18.9883 79.2206 19.4176 78.8702 19.7437C78.5198 20.0372 78.1429 20.2003 77.6651 20.2003C77.2191 20.2003 76.8103 20.0372 76.4599 19.7437C76.1095 19.4176 75.9503 18.9883 75.9503 18.4339V4.42222H73.2214C72.5844 4.42222 72.1119 4.25916 71.857 3.96567C71.5703 3.67217 71.4429 3.30802 71.4429 2.85147C71.4429 2.42753 71.5703 2.03077 71.857 1.73728C72.1119 1.44378 72.5844 1.31334 73.2214 1.31334H82.1087V1.3079ZM89.2122 16.7708H94.5106C95.1476 16.7708 95.6201 16.9338 95.9068 17.2273C96.1617 17.5208 96.3209 17.8849 96.3209 18.3415C96.3209 18.7654 96.1617 19.1622 95.9068 19.4231C95.6201 19.7166 95.1476 19.8796 94.5106 19.8796H87.6248C86.9877 19.8796 86.5152 19.7166 86.2285 19.4231C85.9418 19.1622 85.7825 18.6676 85.7825 18.0154V3.17758C85.7825 2.51993 85.9418 2.03077 86.2285 1.73728C86.5152 1.44378 86.9877 1.31334 87.6248 1.31334H94.3194C94.9831 1.31334 95.429 1.44378 95.7157 1.73728C96.0024 2.03077 96.1298 2.42753 96.1298 2.85147C96.1298 3.30802 96.0024 3.67217 95.7157 3.96567C95.429 4.25916 94.9884 4.42222 94.3194 4.42222H89.2122V8.67789H94.0009C94.638 8.67789 95.1105 8.84095 95.3653 9.13444C95.652 9.42794 95.7794 9.79209 95.7794 10.216C95.7794 10.6726 95.652 11.0367 95.3653 11.3302C95.1105 11.6237 94.638 11.7868 94.0009 11.7868H89.2122V16.7708ZM98.1897 9.30293C98.1897 7.66697 98.3171 6.3245 98.5401 5.24291C98.7949 4.16133 99.1453 3.27541 99.6178 2.65581C100.096 1.99816 100.696 1.54161 101.46 1.28073C102.219 1.01984 103.111 0.889404 104.125 0.889404C104.98 0.889404 105.744 0.987234 106.376 1.24812C107.013 1.47639 107.549 1.8025 107.995 2.23187C108.441 2.65581 108.755 3.1504 108.978 3.70478C109.201 4.29177 109.328 4.8842 109.328 5.5038C109.328 6.12884 109.201 6.61799 108.946 7.00932C108.691 7.36804 108.218 7.5637 107.581 7.5637C106.918 7.5637 106.472 7.43326 106.217 7.10715C105.994 6.81366 105.835 6.25384 105.707 5.5038C105.548 4.22655 105.012 3.60152 104.12 3.60152C103.738 3.60152 103.393 3.66674 103.106 3.79718C102.819 3.92762 102.564 4.22112 102.379 4.65049C102.187 5.07443 102.028 5.73207 101.933 6.52016C101.837 7.34086 101.805 8.45506 101.805 9.86275V10.8791C101.805 11.9933 101.805 12.9771 101.837 13.7923C101.869 14.6456 101.964 15.3305 102.124 15.8903C102.251 16.4446 102.474 16.874 102.787 17.1675C103.074 17.4284 103.483 17.5915 104.024 17.5915C104.47 17.5915 104.847 17.3958 105.198 17.0371C105.516 16.6784 105.707 16.249 105.739 15.6946C105.771 15.2054 105.803 14.7435 105.867 14.3847C105.962 14.026 106.058 13.7271 106.185 13.4988C106.312 13.3032 106.472 13.1401 106.727 13.0097C106.95 12.9118 107.236 12.8792 107.613 12.8792C108.187 12.8792 108.627 13.0423 108.914 13.4336C109.201 13.7923 109.36 14.2869 109.36 14.9065C109.36 15.8577 109.201 16.7055 108.946 17.3958C108.659 18.0534 108.282 18.6404 107.804 19.0644C107.295 19.4883 106.727 19.8198 106.026 20.0155C105.362 20.2112 104.598 20.309 103.743 20.309C102.41 20.309 101.364 20.0807 100.6 19.5535C99.8727 19.0644 99.2993 18.4393 98.9489 17.6186C98.5985 16.8305 98.3755 15.9827 98.3118 15.0315C98.2481 14.0804 98.1844 13.1618 98.1844 12.2488V9.30293H98.1897ZM121.13 1.3079C121.767 1.3079 122.24 1.43835 122.526 1.73184C122.781 2.02534 122.94 2.4221 122.94 2.84604C122.94 3.30259 122.781 3.66673 122.526 3.96023C122.24 4.25373 121.767 4.41678 121.13 4.41678H118.401V18.4339C118.401 18.9883 118.242 19.4176 117.891 19.7437C117.541 20.0372 117.164 20.2003 116.686 20.2003C116.208 20.2003 115.832 20.0372 115.481 19.7437C115.131 19.4176 114.971 18.9883 114.971 18.4339V4.42222H112.243C111.579 4.42222 111.133 4.25916 110.846 3.96567C110.592 3.67217 110.432 3.30802 110.432 2.85147C110.432 2.42753 110.592 2.03077 110.846 1.73728C111.133 1.44378 111.574 1.31334 112.243 1.31334H121.13V1.3079Z" fill="#F0873F"/>
<path fill-rule="evenodd" clip-rule="evenodd" d="M34.1688 4.97656C34.4874 4.97656 34.774 5.27006 34.774 5.6016V15.3304C34.774 15.6565 34.4874 15.9555 34.1688 15.9555C33.8184 15.9555 33.5317 15.662 33.5317 15.3304V5.6016C33.537 5.27006 33.8237 4.97656 34.1688 4.97656Z" fill="#F0873F"/>
<path fill-rule="evenodd" clip-rule="evenodd" d="M17.642 6.15601C17.9605 6.15601 18.2472 6.4495 18.2472 6.78104V14.151C18.2472 14.4771 17.9605 14.7761 17.642 14.7761C17.2916 14.7761 17.0049 14.4826 17.0049 14.151V6.78104C17.0102 6.4495 17.2916 6.15601 17.642 6.15601ZM19.6753 6.15601C20.0257 6.15601 20.3124 6.4495 20.3124 6.78104V14.151C20.3124 14.4771 20.0257 14.7761 19.6753 14.7761C19.3249 14.7761 19.0382 14.4826 19.0382 14.151V6.78104C19.0382 6.4495 19.3249 6.15601 19.6753 6.15601Z" fill="#F0873F"/>
<path d="M47.2718 29.4454C47.2718 29.478 47.2718 29.478 47.2718 29.5106C47.2399 29.5106 47.2081 29.5432 47.1762 29.5432C47.1444 29.5758 47.1125 29.5758 47.0488 29.5758C46.9851 29.5758 46.9214 29.5758 46.8258 29.5758C46.7303 29.5758 46.6666 29.5758 46.6029 29.5758C46.5392 29.5758 46.5073 29.5758 46.4754 29.5432C46.4436 29.5432 46.4117 29.5106 46.4117 29.5106C46.3799 29.478 46.3799 29.478 46.3799 29.4454V25.2549C46.3799 25.2223 46.3799 25.1897 46.4117 25.1897C46.4117 25.1571 46.4436 25.1571 46.4754 25.1571C46.5073 25.1245 46.571 25.1245 46.6029 25.1245C46.6666 25.0919 46.7303 25.0919 46.8258 25.0919C46.9214 25.0919 46.9851 25.0919 47.0488 25.1245C47.1125 25.1245 47.1444 25.1245 47.1762 25.1571C47.2081 25.1571 47.2399 25.1571 47.2718 25.1897C47.2718 25.1897 47.2718 25.2223 47.2718 25.2549V29.4454ZM53.6479 27.2822C53.6479 27.6735 53.6161 28.0051 53.5205 28.266C53.4249 28.5595 53.2975 28.8204 53.1064 29.0215C52.9471 29.2171 52.6923 29.3802 52.4428 29.478C52.1879 29.5758 51.8694 29.6411 51.5243 29.6411C51.1792 29.6411 50.8872 29.6084 50.6377 29.5106C50.3829 29.4128 50.1599 29.2823 49.9741 29.0867C49.8148 28.9236 49.6874 28.6627 49.5918 28.3964C49.5281 28.1029 49.4644 27.7714 49.4644 27.3801C49.4644 27.0213 49.5281 26.6898 49.6237 26.3963C49.6874 26.1028 49.8467 25.8745 50.0059 25.6734C50.1971 25.4452 50.42 25.3147 50.6696 25.1843C50.9562 25.0864 51.2748 25.0538 51.6199 25.0538C51.9384 25.0538 52.257 25.0864 52.5065 25.1843C52.7613 25.2495 52.9524 25.4125 53.1436 25.5756C53.3028 25.7713 53.4302 25.9995 53.5258 26.2985C53.6161 26.5648 53.6479 26.8909 53.6479 27.2822ZM52.7295 27.3474C52.7295 27.1192 52.6976 26.8909 52.6657 26.6898C52.6339 26.4887 52.5702 26.3311 52.4746 26.2006C52.3791 26.0702 52.2835 25.9724 52.1242 25.9071C51.965 25.8093 51.8057 25.7767 51.5827 25.7767C51.3597 25.7767 51.1686 25.8093 51.0093 25.9071C50.8819 26.005 50.7545 26.1028 50.6589 26.2332C50.5634 26.3963 50.4997 26.5267 50.4678 26.7224C50.436 26.9181 50.4041 27.1137 50.4041 27.3094C50.4041 27.5703 50.436 27.7659 50.4678 27.967C50.4997 28.1627 50.5634 28.3258 50.6589 28.4562C50.7226 28.6193 50.8501 28.7171 51.0093 28.7823C51.1368 28.8475 51.3279 28.8801 51.5509 28.8801C51.7738 28.8801 51.965 28.8475 52.0924 28.7823C52.2516 28.6845 52.3791 28.5866 52.4746 28.4236C52.5702 28.2932 52.6339 28.1301 52.6657 27.9344C52.6976 27.7442 52.7295 27.5431 52.7295 27.3474ZM59.4878 29.2497C59.4878 29.3149 59.4878 29.3476 59.456 29.3802C59.456 29.4454 59.4241 29.478 59.3923 29.478C59.3604 29.5106 59.3286 29.5432 59.2967 29.5432C59.233 29.5758 59.2011 29.5758 59.1693 29.5758H58.787C58.6915 29.5758 58.6278 29.5758 58.5641 29.5432C58.5003 29.5432 58.4685 29.5106 58.4048 29.4454C58.3411 29.4128 58.3092 29.3476 58.2774 29.2823C58.2137 29.2171 58.15 29.1193 58.1181 29.0215L57.0085 26.9235C56.9448 26.7931 56.8811 26.6626 56.8174 26.5322C56.7537 26.4017 56.69 26.2387 56.6263 26.1082C56.6263 26.2713 56.6263 26.4343 56.6581 26.5974C56.6581 26.7605 56.6581 26.9235 56.6581 27.1192V29.4454C56.6581 29.4454 56.6581 29.478 56.6263 29.5106C56.6263 29.5106 56.5944 29.5432 56.5626 29.5432C56.5307 29.5758 56.4989 29.5758 56.4351 29.5758C56.4033 29.5758 56.3077 29.5758 56.244 29.5758C56.1485 29.5758 56.0847 29.5758 56.0529 29.5758C55.9892 29.5758 55.9573 29.5758 55.9255 29.5432C55.8936 29.5432 55.8618 29.5106 55.8618 29.5106C55.8299 29.478 55.8299 29.4454 55.8299 29.4454V25.4506C55.8299 25.3528 55.8618 25.2549 55.9255 25.1897C55.9892 25.1571 56.0847 25.1245 56.1803 25.1245H56.6581C56.7218 25.1245 56.8174 25.1245 56.8811 25.1571C56.9448 25.1571 56.9767 25.1897 57.0404 25.2223C57.0722 25.2549 57.1359 25.2875 57.1678 25.3528C57.1996 25.418 57.2315 25.4832 57.2952 25.581L58.15 27.217C58.2137 27.3148 58.2455 27.4127 58.3092 27.5105C58.3411 27.5757 58.4048 27.6735 58.4366 27.7714C58.5003 27.8692 58.5322 27.967 58.5641 28.0649C58.6278 28.1627 58.6596 28.2279 58.6915 28.3258C58.6915 28.1627 58.6915 27.9997 58.6915 27.8366C58.6915 27.6735 58.6915 27.5105 58.6915 27.3474V25.2495C58.6915 25.2169 58.6915 25.2169 58.6915 25.1843C58.7233 25.1843 58.7552 25.1517 58.787 25.1517C58.8189 25.1191 58.8507 25.1191 58.9144 25.1191C58.9463 25.1191 59.01 25.1191 59.1056 25.1191C59.1693 25.1191 59.233 25.1191 59.2967 25.1191C59.3604 25.1191 59.3923 25.1191 59.4241 25.1517C59.456 25.1517 59.456 25.1843 59.4878 25.1843C59.4878 25.2169 59.4878 25.2169 59.4878 25.2495V29.2497ZM61.93 26.7278C61.93 26.8583 61.8981 26.9561 61.8663 27.0213C61.8344 27.1192 61.7707 27.1844 61.6751 27.2496C61.6114 27.3148 61.5159 27.3474 61.4203 27.3801C61.3247 27.4127 61.2292 27.4453 61.1018 27.4453C61.038 27.4453 60.9425 27.4127 60.8788 27.4127C60.8151 27.4127 60.7832 27.3801 60.7195 27.3801C60.6558 27.3474 60.624 27.3474 60.5921 27.3148C60.5602 27.2822 60.5284 27.2822 60.5284 27.2496C60.4965 27.2496 60.4965 27.217 60.4965 27.1844C60.4647 27.1844 60.4647 27.1192 60.4647 27.0866C60.4647 27.0539 60.4647 27.0213 60.4647 26.9887C60.4965 26.9561 60.4965 26.9561 60.4965 26.9235V26.8909C60.5284 26.8909 60.5284 26.8909 60.5284 26.8909C60.5602 26.8909 60.5921 26.8909 60.624 26.9235C60.624 26.9235 60.6877 26.9561 60.7195 26.9887C60.7832 26.9887 60.8151 27.0213 60.8788 27.0539C60.9425 27.0539 61.038 27.0866 61.1018 27.0866C61.1655 27.0866 61.1973 27.0539 61.261 27.0539C61.2929 27.0539 61.3247 27.0213 61.3566 26.9887C61.3884 26.9561 61.4203 26.9561 61.4203 26.9235C61.4522 26.8583 61.4522 26.8257 61.4522 26.7931C61.4522 26.7278 61.4522 26.6952 61.4203 26.6626C61.3884 26.63 61.3566 26.5974 61.3247 26.5648C61.261 26.5322 61.2292 26.4996 61.1655 26.4996C61.1018 26.467 61.038 26.4343 60.9743 26.4017C60.9425 26.3691 60.8788 26.3365 60.8151 26.3039C60.7514 26.2713 60.7195 26.2387 60.6558 26.1735C60.6239 26.1409 60.5921 26.0756 60.5602 26.0104C60.5284 25.9452 60.5284 25.88 60.5284 25.7821C60.5284 25.6843 60.5284 25.5865 60.5602 25.4886C60.6239 25.4234 60.6558 25.3582 60.7195 25.293C60.8151 25.2604 60.8788 25.1951 60.9743 25.1951C61.0699 25.1625 61.1655 25.1299 61.261 25.1299C61.3247 25.1299 61.3566 25.1625 61.4203 25.1625C61.484 25.1625 61.5159 25.1625 61.5796 25.1951C61.6114 25.1951 61.6433 25.2278 61.6751 25.2278C61.707 25.2604 61.7388 25.2604 61.7707 25.2604C61.7707 25.293 61.7707 25.293 61.7707 25.293C61.7707 25.3256 61.8026 25.3256 61.8026 25.3256C61.8026 25.3582 61.8026 25.3582 61.8026 25.3908C61.8026 25.3908 61.8026 25.4234 61.8026 25.456C61.8026 25.4886 61.8026 25.5213 61.8026 25.5539V25.5865C61.7707 25.6191 61.7707 25.6191 61.7707 25.6191C61.7707 25.6517 61.7388 25.6517 61.7388 25.6517C61.7388 25.6517 61.707 25.6517 61.6751 25.6191C61.6433 25.6191 61.6114 25.5865 61.5796 25.5539C61.5477 25.5539 61.484 25.5213 61.4522 25.5213C61.3884 25.4886 61.3247 25.4886 61.261 25.4886C61.2292 25.4886 61.1655 25.4886 61.1336 25.5213C61.1018 25.5213 61.0699 25.5539 61.0381 25.5539C61.0381 25.5865 61.0062 25.6191 61.0062 25.6517C60.9743 25.6517 60.9743 25.6843 60.9743 25.7169C60.9743 25.7821 60.9743 25.8147 61.0062 25.8474C61.0381 25.88 61.0699 25.9126 61.1336 25.9452C61.1655 25.9778 61.2292 26.0104 61.261 26.043C61.3247 26.043 61.3884 26.0756 61.4522 26.1082C61.5159 26.1408 61.5796 26.1735 61.6114 26.2061C61.6751 26.2387 61.7388 26.2713 61.7707 26.3365C61.8344 26.3691 61.8663 26.4343 61.8981 26.4996C61.8981 26.5648 61.93 26.63 61.93 26.7278ZM69.6068 26.4615C69.6068 26.7224 69.5431 26.9507 69.4794 27.1192C69.3838 27.3148 69.2882 27.4779 69.129 27.6083C68.9697 27.7388 68.8104 27.8366 68.5875 27.9018C68.3645 27.9997 68.1096 28.0323 67.8283 28.0323H67.446V29.44C67.446 29.4726 67.446 29.4726 67.446 29.5052C67.4142 29.5052 67.3823 29.5378 67.3505 29.5378C67.3186 29.5704 67.2868 29.5704 67.223 29.5704C67.1593 29.5704 67.0956 29.5704 67.0001 29.5704C66.9045 29.5704 66.8408 29.5704 66.7771 29.5704C66.7134 29.5704 66.6815 29.5704 66.6497 29.5378C66.6178 29.5378 66.586 29.5052 66.586 29.5052C66.5541 29.4726 66.5541 29.4726 66.5541 29.44V25.4452C66.5541 25.3473 66.586 25.2495 66.6497 25.1843C66.6815 25.1517 66.7771 25.1191 66.8726 25.1191H67.8867C68.0141 25.1191 68.1096 25.1191 68.2052 25.1191C68.3008 25.1517 68.3963 25.1517 68.5556 25.1843C68.683 25.2169 68.8104 25.2495 68.9378 25.3147C69.0971 25.4125 69.1927 25.4778 69.2882 25.6082C69.3838 25.706 69.4794 25.8365 69.5112 25.9669C69.5749 26.1354 69.6068 26.2985 69.6068 26.4615ZM68.6565 26.5322C68.6565 26.3691 68.6246 26.2387 68.5609 26.1409C68.5291 26.043 68.4335 25.9778 68.3698 25.9452C68.2742 25.88 68.2105 25.8474 68.115 25.8474C68.0194 25.8147 67.9238 25.8147 67.8283 25.8147H67.446V27.3203H67.8601C68.0194 27.3203 68.115 27.3203 68.2105 27.255C68.3061 27.2224 68.4016 27.1898 68.4653 27.1246C68.5291 27.0268 68.5609 26.9615 68.5928 26.8637C68.6246 26.7605 68.6565 26.6626 68.6565 26.5322ZM75.6962 27.2822C75.6962 27.6735 75.6644 28.0051 75.5688 28.266C75.4732 28.5595 75.3458 28.8204 75.1547 29.0215C74.9636 29.2171 74.7406 29.3802 74.4911 29.478C74.2044 29.5758 73.9177 29.6411 73.5726 29.6411C73.2275 29.6411 72.909 29.6084 72.6542 29.5106C72.3993 29.4128 72.2082 29.2823 72.0171 29.0867C71.8578 28.9236 71.7304 28.6627 71.6348 28.3964C71.5393 28.1029 71.5074 27.7714 71.5074 27.3801C71.5074 27.0213 71.5393 26.6898 71.6348 26.3963C71.7304 26.1028 71.8897 25.8745 72.0489 25.6734C72.2401 25.4452 72.463 25.3147 72.7126 25.1843C72.9992 25.0864 73.2859 25.0538 73.631 25.0538C73.9814 25.0538 74.2681 25.0864 74.5176 25.1843C74.7725 25.2495 74.9954 25.4125 75.1812 25.5756C75.3405 25.7713 75.4679 25.9995 75.5635 26.2985C75.6644 26.5648 75.6962 26.8909 75.6962 27.2822ZM74.7459 27.3474C74.7459 27.1192 74.7459 26.8909 74.7141 26.6898C74.6503 26.4941 74.5866 26.3311 74.5229 26.2006C74.4274 26.0702 74.2999 25.9724 74.1725 25.9071C74.0133 25.8093 73.8221 25.7767 73.5992 25.7767C73.3762 25.7767 73.2169 25.8093 73.0576 25.9071C72.8984 26.005 72.8028 26.1028 72.7072 26.2332C72.6117 26.3963 72.548 26.5267 72.5161 26.7224C72.4524 26.9181 72.4524 27.1137 72.4524 27.3094C72.4524 27.5703 72.4524 27.7659 72.5161 27.967C72.548 28.1627 72.6117 28.3258 72.6754 28.4562C72.771 28.6193 72.8984 28.7171 73.0258 28.7823C73.1851 28.8475 73.3762 28.8801 73.5992 28.8801C73.8221 28.8801 73.9814 28.8475 74.1407 28.7823C74.2999 28.6845 74.4274 28.5866 74.4911 28.4236C74.5866 28.2932 74.6503 28.1301 74.7141 27.9344C74.7459 27.7442 74.7459 27.5431 74.7459 27.3474ZM80.6814 25.4832C80.6814 25.5484 80.6814 25.6136 80.6814 25.6463C80.6814 25.7115 80.6495 25.7441 80.6495 25.7767C80.6495 25.8093 80.6177 25.8093 80.6177 25.8419C80.5858 25.8419 80.554 25.8745 80.554 25.8745H79.4444V29.4454C79.4444 29.478 79.4444 29.478 79.4125 29.5106C79.4125 29.5106 79.3807 29.5432 79.3488 29.5432C79.317 29.5758 79.2533 29.5758 79.1895 29.5758C79.1577 29.5758 79.0621 29.5758 78.9984 29.5758C78.9029 29.5758 78.8392 29.5758 78.7754 29.5758C78.7117 29.5758 78.6799 29.5758 78.6162 29.5432C78.5843 29.5432 78.5843 29.5106 78.5525 29.5106C78.5525 29.478 78.5206 29.478 78.5206 29.4454V25.8745H77.411L77.3792 25.8419C77.3473 25.8093 77.3473 25.8093 77.3155 25.7767C77.3155 25.7441 77.3155 25.7115 77.3155 25.6463C77.2836 25.6136 77.2836 25.5484 77.2836 25.4832C77.2836 25.418 77.2836 25.3528 77.3155 25.3202C77.3155 25.2549 77.3155 25.2223 77.3155 25.1897C77.3473 25.1897 77.3473 25.1571 77.3792 25.1571C77.3792 25.1245 77.411 25.1245 77.411 25.1245H80.554C80.554 25.1245 80.5858 25.1245 80.6177 25.1571L80.6495 25.1897C80.6495 25.2223 80.6814 25.2549 80.6814 25.3202C80.6814 25.3528 80.6814 25.418 80.6814 25.4832ZM85.2471 29.2171C85.2471 29.2823 85.2471 29.3476 85.2471 29.3802C85.2471 29.4128 85.2471 29.4454 85.2153 29.478C85.2153 29.5106 85.1834 29.5432 85.1834 29.5432C85.1516 29.5758 85.1516 29.5758 85.1197 29.5758H82.9005C82.8368 29.5758 82.7731 29.5432 82.7094 29.5106C82.6457 29.4454 82.6457 29.3802 82.6457 29.2823V25.418C82.6457 25.3202 82.6457 25.2223 82.7094 25.1897C82.7731 25.1571 82.8368 25.1245 82.9005 25.1245H85.1197C85.1197 25.1245 85.1516 25.1245 85.1516 25.1571C85.1834 25.1571 85.1834 25.1571 85.2153 25.1897C85.2153 25.2223 85.2153 25.2549 85.2153 25.3202C85.2471 25.3528 85.2471 25.418 85.2471 25.4832C85.2471 25.5484 85.2471 25.6136 85.2153 25.6463C85.2153 25.6789 85.2153 25.7115 85.2153 25.7441C85.1834 25.7767 85.1834 25.8093 85.1516 25.8093L85.1197 25.8419H83.5323V26.9235H84.8649C84.8967 26.9235 84.8967 26.9235 84.9286 26.9235C84.9286 26.9561 84.9604 26.9561 84.9604 26.9887C84.9604 27.0213 84.9923 27.0539 84.9923 27.0866C84.9923 27.1518 84.9923 27.1844 84.9923 27.2496C84.9923 27.3148 84.9923 27.3801 84.9923 27.4127C84.9923 27.4779 84.9604 27.5105 84.9604 27.5431L84.9286 27.5757C84.8967 27.6083 84.8967 27.6083 84.8649 27.6083H83.5323V28.853H85.1197C85.1516 28.853 85.1516 28.853 85.1834 28.8856L85.2153 28.9182C85.2471 28.9508 85.2471 28.9834 85.2471 29.0486C85.2471 29.0867 85.2471 29.1519 85.2471 29.2171ZM91.1189 29.2497C91.1189 29.3149 91.1189 29.3476 91.1189 29.3802C91.087 29.4454 91.0552 29.478 91.0233 29.478C90.9915 29.5106 90.9596 29.5432 90.9278 29.5432C90.864 29.5758 90.8322 29.5758 90.8003 29.5758H90.4181C90.3225 29.5758 90.2588 29.5758 90.1951 29.5432C90.1314 29.5432 90.0996 29.5106 90.0358 29.4454C90.004 29.4128 89.9403 29.3476 89.9084 29.2823C89.8447 29.2171 89.8129 29.1193 89.7492 29.0215L88.6396 26.9235C88.5759 26.7931 88.5122 26.6626 88.4485 26.5322C88.3848 26.4017 88.321 26.2387 88.2573 26.1082C88.2573 26.2713 88.2892 26.4343 88.2892 26.5974C88.2892 26.7605 88.2892 26.9235 88.2892 27.1192V29.4454C88.2892 29.4454 88.2892 29.478 88.2573 29.5106C88.2573 29.5106 88.2255 29.5432 88.1936 29.5432C88.1618 29.5758 88.1299 29.5758 88.0662 29.5758C88.0344 29.5758 87.9706 29.5758 87.8751 29.5758C87.8114 29.5758 87.7158 29.5758 87.684 29.5758C87.6203 29.5758 87.5884 29.5758 87.5565 29.5432C87.5247 29.5432 87.4928 29.5106 87.4928 29.5106C87.4928 29.478 87.461 29.4454 87.461 29.4454V25.4506C87.461 25.3528 87.4928 25.2549 87.5565 25.1897C87.6202 25.1571 87.7158 25.1245 87.8114 25.1245H88.2892C88.3847 25.1245 88.4485 25.1245 88.5122 25.1571C88.5759 25.1571 88.6077 25.1897 88.6714 25.2223C88.7033 25.2549 88.767 25.2875 88.7989 25.3528C88.8307 25.418 88.8944 25.4832 88.9263 25.581L89.781 27.217C89.8447 27.3148 89.8766 27.4127 89.9403 27.5105C89.9721 27.5757 90.0358 27.6735 90.0677 27.7714C90.1314 27.8692 90.1633 27.967 90.1951 28.0649C90.2588 28.1627 90.2907 28.2279 90.3225 28.3258H90.3544C90.3225 28.1627 90.3225 27.9997 90.3225 27.8366C90.3225 27.6735 90.3225 27.5105 90.3225 27.3474V25.2495C90.3225 25.2169 90.3225 25.2169 90.3544 25.1843C90.3544 25.1843 90.3862 25.1517 90.4181 25.1517C90.45 25.1191 90.4818 25.1191 90.5455 25.1191C90.5774 25.1191 90.6411 25.1191 90.7366 25.1191C90.8003 25.1191 90.8959 25.1191 90.9278 25.1191C90.9915 25.1191 91.0233 25.1191 91.0552 25.1517C91.087 25.1517 91.1189 25.1843 91.1189 25.1843C91.1189 25.2169 91.1189 25.2169 91.1189 25.2495V29.2497ZM96.4757 25.4832C96.4757 25.5484 96.4757 25.6136 96.4438 25.6463C96.4438 25.7115 96.4438 25.7441 96.4438 25.7767C96.412 25.8093 96.412 25.8093 96.3801 25.8419L96.3483 25.8745H95.2387V29.4454C95.2387 29.478 95.2068 29.478 95.2068 29.5106C95.175 29.5106 95.175 29.5432 95.1431 29.5432C95.1113 29.5758 95.0476 29.5758 94.9838 29.5758C94.9201 29.5758 94.8564 29.5758 94.7609 29.5758C94.6972 29.5758 94.6016 29.5758 94.5697 29.5758C94.506 29.5758 94.4423 29.5758 94.4105 29.5432C94.3786 29.5432 94.3468 29.5106 94.3468 29.5106C94.3149 29.478 94.3149 29.478 94.3149 29.4454V25.8745H93.2053C93.2053 25.8745 93.1735 25.8419 93.1416 25.8419C93.1416 25.8093 93.1416 25.8093 93.1098 25.7767C93.1098 25.7441 93.1098 25.7115 93.0779 25.6463C93.0779 25.6136 93.0779 25.5484 93.0779 25.4832C93.0779 25.418 93.0779 25.3528 93.0779 25.3202C93.1098 25.2549 93.1098 25.2223 93.1098 25.1897C93.1416 25.1897 93.1416 25.1571 93.1416 25.1571C93.1735 25.1245 93.2053 25.1245 93.2053 25.1245H96.3483C96.3483 25.1245 96.3801 25.1245 96.3801 25.1571C96.412 25.1571 96.412 25.1897 96.4438 25.1897C96.4438 25.2223 96.4438 25.2549 96.4438 25.3202C96.4757 25.3528 96.4757 25.418 96.4757 25.4832ZM99.3319 29.4454C99.3319 29.478 99.3319 29.478 99.3001 29.5106C99.3001 29.5106 99.2682 29.5432 99.2363 29.5432C99.2045 29.5758 99.1408 29.5758 99.1089 29.5758C99.0452 29.5758 98.9497 29.5758 98.886 29.5758C98.7904 29.5758 98.7267 29.5758 98.663 29.5758C98.5993 29.5758 98.5356 29.5758 98.5037 29.5432C98.4719 29.5432 98.4719 29.5106 98.44 29.5106C98.44 29.478 98.4081 29.478 98.4081 29.4454V25.2549C98.4081 25.2223 98.44 25.1897 98.44 25.1897C98.4719 25.1571 98.4719 25.1571 98.5356 25.1571C98.5674 25.1245 98.5993 25.1245 98.663 25.1245C98.7267 25.0919 98.7904 25.0919 98.886 25.0919C98.9497 25.0919 99.0452 25.0919 99.1089 25.1245C99.1408 25.1245 99.2045 25.1245 99.2363 25.1571C99.2682 25.1571 99.3001 25.1571 99.3001 25.1897C99.3319 25.1897 99.3319 25.2223 99.3319 25.2549V29.4454ZM105.363 29.2171C105.363 29.3149 105.395 29.3802 105.395 29.4128C105.395 29.478 105.395 29.5106 105.363 29.5432C105.363 29.5432 105.299 29.5758 105.236 29.5758C105.172 29.5758 105.076 29.5758 104.981 29.5758C104.853 29.5758 104.758 29.5758 104.694 29.5758C104.63 29.5758 104.598 29.5758 104.567 29.5758C104.535 29.5432 104.503 29.5432 104.471 29.5106C104.471 29.5106 104.471 29.478 104.439 29.4454L104.152 28.5595H102.501L102.215 29.4128C102.183 29.4454 102.183 29.478 102.183 29.5106C102.151 29.5106 102.119 29.5432 102.087 29.5432C102.055 29.5758 102.024 29.5758 101.96 29.5758C101.896 29.5758 101.801 29.5758 101.705 29.5758C101.609 29.5758 101.546 29.5758 101.482 29.5758C101.418 29.5758 101.355 29.5432 101.355 29.5106C101.323 29.5106 101.323 29.478 101.323 29.4128C101.323 29.3802 101.355 29.3149 101.387 29.2171L102.751 25.2875C102.751 25.2549 102.783 25.2223 102.783 25.1897C102.815 25.1571 102.846 25.1571 102.878 25.1245C102.91 25.1245 102.974 25.1245 103.038 25.1245C103.101 25.0919 103.197 25.0919 103.324 25.0919C103.452 25.0919 103.579 25.0919 103.643 25.1245C103.738 25.1245 103.802 25.1245 103.834 25.1245C103.866 25.1571 103.898 25.1571 103.93 25.1897C103.961 25.2223 103.961 25.2549 103.993 25.2875L105.363 29.2171ZM103.33 25.9724L102.693 27.8746H103.93L103.33 25.9724ZM109.833 29.1845C109.833 29.2497 109.833 29.3149 109.833 29.3476C109.801 29.4128 109.801 29.4454 109.801 29.478C109.769 29.5106 109.769 29.5432 109.769 29.5432C109.738 29.5432 109.706 29.5758 109.706 29.5758H107.678C107.582 29.5758 107.518 29.5432 107.487 29.5106C107.423 29.4454 107.391 29.3802 107.391 29.2823V25.2549C107.391 25.2223 107.423 25.1897 107.423 25.1897C107.423 25.1571 107.455 25.1571 107.487 25.1571C107.518 25.1245 107.582 25.1245 107.646 25.1245C107.71 25.0919 107.773 25.0919 107.869 25.0919C107.933 25.0919 108.028 25.0919 108.06 25.1245C108.124 25.1245 108.187 25.1245 108.219 25.1571C108.251 25.1571 108.283 25.1571 108.283 25.1897C108.315 25.1897 108.315 25.2223 108.315 25.2549V28.8258H109.711C109.711 28.8258 109.743 28.8258 109.775 28.8258C109.775 28.8584 109.775 28.8584 109.807 28.891C109.807 28.9236 109.807 28.9562 109.838 29.0215C109.833 29.0541 109.833 29.1193 109.833 29.1845ZM117.069 27.2822C117.069 27.6735 117.006 28.0377 116.878 28.3312C116.783 28.6247 116.623 28.853 116.432 29.0215C116.241 29.2171 115.986 29.3476 115.705 29.4454C115.418 29.5106 115.1 29.5758 114.691 29.5758H113.645C113.581 29.5758 113.518 29.5432 113.454 29.5106C113.39 29.4454 113.39 29.3802 113.39 29.2823V25.418C113.39 25.3202 113.39 25.2223 113.454 25.1897C113.518 25.1571 113.581 25.1245 113.645 25.1245H114.786C115.169 25.1245 115.514 25.1571 115.769 25.2549C116.055 25.3528 116.278 25.4832 116.464 25.6789C116.655 25.8419 116.814 26.0702 116.91 26.3365C117.006 26.63 117.069 26.9235 117.069 27.2822ZM116.114 27.3148C116.114 27.0866 116.082 26.8909 116.05 26.7278C115.986 26.5322 115.923 26.4017 115.795 26.2387C115.7 26.1082 115.572 26.0104 115.381 25.9452C115.222 25.88 114.999 25.8474 114.717 25.8474H114.271V28.8584H114.749C114.972 28.8584 115.195 28.8258 115.354 28.7606C115.546 28.6953 115.673 28.5975 115.8 28.4671C115.896 28.3366 115.992 28.1736 116.055 27.9779C116.082 27.7768 116.114 27.5757 116.114 27.3148ZM121.858 29.2171C121.858 29.2823 121.858 29.3476 121.826 29.3802C121.826 29.4128 121.826 29.4454 121.826 29.478C121.794 29.5106 121.794 29.5432 121.762 29.5432C121.762 29.5758 121.731 29.5758 121.699 29.5758H119.48C119.416 29.5758 119.352 29.5432 119.288 29.5106C119.257 29.4454 119.225 29.3802 119.225 29.2823V25.418C119.225 25.3202 119.257 25.2223 119.288 25.1897C119.352 25.1571 119.416 25.1245 119.48 25.1245H121.699C121.731 25.1245 121.731 25.1245 121.762 25.1571C121.762 25.1571 121.794 25.1571 121.794 25.1897C121.794 25.2223 121.826 25.2549 121.826 25.3202C121.826 25.3528 121.826 25.418 121.826 25.4832C121.826 25.5484 121.826 25.6136 121.826 25.6463C121.826 25.6789 121.794 25.7115 121.794 25.7441C121.794 25.7767 121.762 25.8093 121.762 25.8093C121.731 25.8093 121.731 25.8419 121.699 25.8419H120.111V26.9235H121.444C121.476 26.9235 121.508 26.9235 121.508 26.9235C121.539 26.9561 121.539 26.9561 121.539 26.9887C121.571 27.0213 121.571 27.0539 121.571 27.0866C121.571 27.1518 121.603 27.1844 121.603 27.2496C121.603 27.3148 121.571 27.3801 121.571 27.4127C121.571 27.4779 121.571 27.5105 121.539 27.5431C121.539 27.5431 121.539 27.5757 121.508 27.5757C121.508 27.6083 121.476 27.6083 121.444 27.6083H120.111V28.853H121.699C121.731 28.853 121.762 28.853 121.762 28.8856C121.794 28.8856 121.794 28.9182 121.826 28.9182C121.826 28.9508 121.826 28.9834 121.826 29.0486C121.858 29.0867 121.858 29.1519 121.858 29.2171ZM127.029 25.4832C127.029 25.5484 126.997 25.6136 126.997 25.6463C126.997 25.7115 126.997 25.7441 126.965 25.7767C126.965 25.8093 126.965 25.8093 126.933 25.8419C126.933 25.8419 126.902 25.8745 126.87 25.8745H125.76V29.4454C125.76 29.478 125.76 29.478 125.76 29.5106C125.728 29.5106 125.696 29.5432 125.665 29.5432C125.633 29.5758 125.601 29.5758 125.537 29.5758C125.473 29.5758 125.41 29.5758 125.314 29.5758C125.219 29.5758 125.155 29.5758 125.091 29.5758C125.059 29.5758 124.996 29.5758 124.964 29.5432C124.932 29.5432 124.9 29.5106 124.9 29.5106C124.868 29.478 124.868 29.478 124.868 29.4454V25.8745H123.759C123.727 25.8745 123.727 25.8419 123.695 25.8419C123.695 25.8093 123.663 25.8093 123.663 25.7767C123.663 25.7441 123.631 25.7115 123.631 25.6463C123.631 25.6136 123.631 25.5484 123.631 25.4832C123.631 25.418 123.631 25.3528 123.631 25.3202C123.631 25.2549 123.663 25.2223 123.663 25.1897L123.695 25.1571C123.727 25.1245 123.727 25.1245 123.759 25.1245H126.87C126.902 25.1245 126.933 25.1245 126.933 25.1571C126.965 25.1571 126.965 25.1897 126.965 25.1897C126.997 25.2223 126.997 25.2549 126.997 25.3202C126.997 25.3528 127.029 25.418 127.029 25.4832ZM131.595 29.2171C131.595 29.2823 131.595 29.3476 131.595 29.3802C131.563 29.4128 131.563 29.4454 131.563 29.478C131.531 29.5106 131.531 29.5432 131.499 29.5432C131.499 29.5758 131.467 29.5758 131.467 29.5758H129.248C129.153 29.5758 129.089 29.5432 129.057 29.5106C128.993 29.4454 128.961 29.3802 128.961 29.2823V25.418C128.961 25.3202 128.993 25.2223 129.057 25.1897C129.089 25.1571 129.153 25.1245 129.248 25.1245H131.435C131.467 25.1245 131.467 25.1245 131.499 25.1571C131.499 25.1571 131.531 25.1571 131.531 25.1897C131.563 25.2223 131.563 25.2549 131.563 25.3202C131.563 25.3528 131.563 25.418 131.563 25.4832C131.563 25.5484 131.563 25.6136 131.563 25.6463C131.563 25.6789 131.563 25.7115 131.531 25.7441C131.531 25.7767 131.499 25.8093 131.499 25.8093C131.467 25.8093 131.467 25.8419 131.435 25.8419H129.848V26.9235H131.213H131.244C131.276 26.9561 131.276 26.9561 131.308 26.9887C131.308 27.0213 131.308 27.0539 131.308 27.0866C131.34 27.1518 131.34 27.1844 131.34 27.2496C131.34 27.3148 131.34 27.3801 131.308 27.4127C131.308 27.4779 131.308 27.5105 131.308 27.5431C131.276 27.5431 131.276 27.5757 131.244 27.5757C131.244 27.6083 131.213 27.6083 131.213 27.6083H129.848V28.853H131.467C131.467 28.853 131.499 28.853 131.499 28.8856C131.531 28.8856 131.531 28.9182 131.563 28.9182C131.563 28.9508 131.563 28.9834 131.595 29.0486C131.595 29.0867 131.595 29.1519 131.595 29.2171Z" fill="#231915"/>
<path d="M124.937 2.74815C124.937 2.19377 125.128 1.76439 125.479 1.43829C125.797 1.14479 126.206 0.981743 126.684 0.981743C127.13 0.981743 127.538 1.14479 127.889 1.43829C128.207 1.76439 128.398 2.19377 128.398 2.74815V18.4393C128.398 18.9936 128.207 19.423 127.889 19.7491C127.538 20.0426 127.13 20.2057 126.684 20.2057C126.206 20.2057 125.797 20.0426 125.479 19.7491C125.128 19.423 124.937 18.9936 124.937 18.4393V2.74815ZM134.61 12.4117C134.61 13.5259 134.642 14.4445 134.737 15.1293C134.801 15.7869 134.929 16.3087 135.12 16.7C135.279 17.0588 135.502 17.287 135.757 17.4229C136.012 17.5207 136.33 17.586 136.643 17.586C136.994 17.586 137.307 17.5207 137.562 17.4229C137.817 17.2925 138.04 17.0642 138.199 16.7C138.358 16.3087 138.486 15.7815 138.581 15.1293C138.677 14.439 138.709 13.5259 138.709 12.4117V8.48217C138.709 7.46581 138.677 6.68316 138.581 6.02551C138.486 5.40048 138.358 4.8787 138.199 4.51999C138.04 4.16127 137.817 3.933 137.562 3.79712C137.307 3.66668 136.988 3.60146 136.643 3.60146C136.325 3.60146 136.006 3.66668 135.757 3.79712C135.502 3.92757 135.279 4.15584 135.12 4.51999C134.929 4.8787 134.801 5.40591 134.737 6.02551C134.642 6.68316 134.61 7.46581 134.61 8.48217V12.4117ZM130.995 8.48217C130.995 6.78099 131.154 5.43852 131.472 4.42216C131.791 3.4058 132.232 2.65575 132.741 2.12855C133.283 1.60678 133.883 1.24263 134.552 1.11218C135.247 0.949131 135.948 0.883911 136.643 0.883911C137.371 0.883911 138.072 0.949131 138.735 1.11218C139.431 1.24263 140.036 1.60134 140.546 2.12855C141.087 2.65032 141.496 3.4058 141.814 4.42216C142.133 5.43852 142.292 6.78099 142.292 8.48217V12.4117C142.292 14.1455 142.165 15.5587 141.878 16.5696C141.56 17.6186 141.183 18.4393 140.673 18.961C140.163 19.5154 139.563 19.8796 138.863 20.0426C138.199 20.2383 137.434 20.3035 136.643 20.3035C135.852 20.3035 135.12 20.2383 134.424 20.0426C133.729 19.8796 133.155 19.5209 132.646 18.961C132.136 18.4393 131.727 17.6186 131.441 16.5696C131.154 15.5532 130.995 14.1455 130.995 12.4117V8.48217ZM144.761 2.74815C144.761 2.19377 144.92 1.76439 145.271 1.43829C145.589 1.14479 146.062 0.981743 146.667 0.981743C147.208 0.981743 147.649 1.07957 148.031 1.30785C148.413 1.50351 148.727 1.9981 149.045 2.71554L153.138 12.9009H153.17V2.74815C153.17 2.19377 153.361 1.76439 153.712 1.43829C154.03 1.14479 154.439 0.981743 154.917 0.981743C155.363 0.981743 155.772 1.14479 156.122 1.43829C156.441 1.76439 156.632 2.19377 156.632 2.74815V18.2762C156.632 18.9013 156.441 19.3904 156.122 19.7165C155.772 20.0426 155.363 20.2057 154.917 20.2057C154.19 20.2057 153.68 20.1078 153.298 19.8796C152.915 19.6513 152.602 19.1893 152.347 18.4719L148.254 8.15607H148.19V18.4393C148.19 18.9936 148.031 19.423 147.681 19.7491C147.33 20.0426 146.953 20.2057 146.476 20.2057C146.03 20.2057 145.621 20.0426 145.271 19.7491C144.92 19.423 144.761 18.9936 144.761 18.4393V2.74815Z" fill="#FE346E"/>
<path d="M136.765 28.8855C136.765 28.9507 136.765 28.9833 136.765 29.0486C136.765 29.0812 136.765 29.1138 136.765 29.1464C136.734 29.179 136.734 29.179 136.734 29.2116C136.702 29.2442 136.702 29.2442 136.67 29.2768C136.638 29.3095 136.606 29.3421 136.511 29.3747C136.447 29.4073 136.351 29.4725 136.256 29.5051C136.16 29.5377 136.033 29.5703 135.905 29.603C135.778 29.6356 135.619 29.6356 135.459 29.6356C135.173 29.6356 134.886 29.5703 134.636 29.5051C134.414 29.4073 134.191 29.2442 134.031 29.0812C133.84 28.8855 133.713 28.6572 133.617 28.3583C133.553 28.0974 133.49 27.7713 133.49 27.4072C133.49 27.0158 133.553 26.6843 133.649 26.3908C133.745 26.0973 133.872 25.8364 134.063 25.6353C134.254 25.4397 134.477 25.3092 134.7 25.1788C134.955 25.0809 135.242 25.0483 135.555 25.0483C135.682 25.0483 135.778 25.0483 135.905 25.0809C136.033 25.0809 136.128 25.1136 136.224 25.1462C136.319 25.1788 136.415 25.2114 136.479 25.2766C136.574 25.3092 136.606 25.3418 136.638 25.3744C136.67 25.4071 136.702 25.4397 136.702 25.4397C136.734 25.4723 136.734 25.5049 136.734 25.5375C136.734 25.5701 136.765 25.6027 136.765 25.6353C136.765 25.7006 136.765 25.7332 136.765 25.7984C136.765 25.8636 136.765 25.9288 136.765 25.994C136.734 26.0267 136.734 26.0593 136.734 26.0919C136.702 26.1245 136.702 26.1571 136.702 26.1571C136.67 26.1897 136.638 26.1897 136.638 26.1897C136.606 26.1897 136.542 26.1571 136.511 26.1245C136.447 26.0919 136.383 26.0267 136.288 25.994C136.224 25.9288 136.128 25.8962 136.001 25.8636C135.873 25.831 135.746 25.7984 135.587 25.7984C135.396 25.7984 135.236 25.831 135.109 25.8962C134.982 25.9614 134.854 26.0919 134.759 26.2223C134.663 26.3528 134.599 26.5158 134.536 26.6789C134.472 26.8745 134.472 27.1028 134.472 27.3365C134.472 27.5974 134.504 27.8257 134.536 28.0268C134.599 28.2224 134.663 28.3529 134.759 28.4833C134.886 28.6138 134.982 28.7116 135.141 28.7768C135.268 28.842 135.428 28.842 135.619 28.842C135.778 28.842 135.905 28.842 136.033 28.8094C136.128 28.7768 136.256 28.7116 136.319 28.679C136.415 28.6464 136.479 28.5812 136.542 28.5485C136.574 28.5159 136.638 28.4833 136.67 28.4833L136.702 28.5159C136.734 28.5159 136.734 28.5485 136.734 28.5812C136.765 28.5812 136.765 28.6464 136.765 28.679C136.765 28.7551 136.765 28.8203 136.765 28.8855ZM141.846 25.4831C141.846 25.5484 141.846 25.6136 141.814 25.6462C141.814 25.7114 141.814 25.744 141.814 25.7766C141.782 25.8093 141.782 25.8093 141.751 25.8419C141.751 25.8419 141.719 25.8745 141.687 25.8745H140.577V29.4453C140.577 29.4779 140.577 29.4779 140.577 29.5106C140.545 29.5106 140.545 29.5432 140.482 29.5432C140.45 29.5758 140.418 29.5758 140.354 29.5758C140.291 29.5758 140.227 29.5758 140.131 29.5758C140.068 29.5758 139.972 29.5758 139.908 29.5758C139.876 29.5758 139.813 29.5758 139.781 29.5432C139.749 29.5432 139.717 29.5106 139.717 29.5106C139.685 29.4779 139.685 29.4779 139.685 29.4453V25.8745H138.576C138.544 25.8745 138.544 25.8419 138.512 25.8419C138.512 25.8093 138.48 25.8093 138.48 25.7766C138.48 25.744 138.448 25.7114 138.448 25.6462C138.448 25.6136 138.448 25.5484 138.448 25.4831C138.448 25.4179 138.448 25.3527 138.448 25.3201C138.448 25.2549 138.48 25.2223 138.48 25.1897L138.512 25.157C138.544 25.1244 138.544 25.1244 138.576 25.1244H141.687C141.719 25.1244 141.751 25.1244 141.751 25.157C141.782 25.157 141.782 25.1897 141.814 25.1897C141.814 25.2223 141.814 25.2549 141.814 25.3201C141.846 25.3527 141.846 25.4179 141.846 25.4831ZM144.697 29.4453C144.697 29.4779 144.665 29.4779 144.665 29.5106C144.665 29.5106 144.633 29.5432 144.601 29.5432C144.57 29.5758 144.506 29.5758 144.442 29.5758C144.41 29.5758 144.315 29.5758 144.219 29.5758C144.156 29.5758 144.06 29.5758 144.028 29.5758C143.964 29.5758 143.901 29.5758 143.869 29.5432C143.837 29.5432 143.805 29.5106 143.805 29.5106C143.773 29.4779 143.773 29.4779 143.773 29.4453V25.2549C143.773 25.2223 143.773 25.1897 143.805 25.1897C143.805 25.157 143.837 25.157 143.869 25.157C143.901 25.1244 143.964 25.1244 144.028 25.1244C144.06 25.0918 144.156 25.0918 144.219 25.0918C144.315 25.0918 144.41 25.0918 144.442 25.1244C144.506 25.1244 144.57 25.1244 144.601 25.157C144.633 25.157 144.665 25.157 144.665 25.1897C144.665 25.1897 144.697 25.2223 144.697 25.2549V29.4453ZM151.073 27.2822C151.073 27.6409 151.009 28.005 150.914 28.2659C150.85 28.5594 150.691 28.8203 150.532 29.0214C150.341 29.2171 150.118 29.3801 149.836 29.4779C149.581 29.5758 149.263 29.641 148.918 29.641C148.599 29.641 148.281 29.6084 148.031 29.5106C147.776 29.4127 147.553 29.2823 147.394 29.0866C147.203 28.9236 147.075 28.6627 147.012 28.3964C146.916 28.1029 146.884 27.7713 146.884 27.38C146.884 27.0213 146.916 26.6897 147.012 26.3962C147.107 26.1027 147.235 25.8745 147.426 25.6734C147.585 25.4451 147.808 25.3147 148.09 25.1842C148.344 25.0864 148.663 25.0538 149.008 25.0538C149.353 25.0538 149.645 25.0864 149.895 25.1842C150.149 25.2494 150.372 25.4125 150.532 25.5755C150.723 25.7712 150.85 25.9995 150.946 26.2984C151.015 26.5647 151.073 26.8908 151.073 27.2822ZM150.123 27.3474C150.123 27.1191 150.091 26.8908 150.059 26.6897C150.027 26.4941 149.964 26.331 149.868 26.2006C149.804 26.0701 149.677 25.9723 149.518 25.9071C149.39 25.8093 149.199 25.7766 148.976 25.7766C148.753 25.7766 148.562 25.8093 148.435 25.9071C148.275 26.0049 148.148 26.1027 148.052 26.2332C147.957 26.3962 147.893 26.5267 147.861 26.7224C147.829 26.918 147.798 27.1137 147.798 27.3093C147.798 27.5702 147.829 27.7659 147.861 27.967C147.893 28.1627 147.957 28.3257 148.052 28.4561C148.148 28.6192 148.243 28.717 148.403 28.7822C148.562 28.8475 148.721 28.8801 148.944 28.8801C149.167 28.8801 149.358 28.8475 149.518 28.7822C149.645 28.6844 149.772 28.5866 149.868 28.4235C149.964 28.2931 150.027 28.13 150.059 27.9344C150.091 27.7441 150.123 27.543 150.123 27.3474ZM156.913 29.2497C156.913 29.3149 156.881 29.3475 156.881 29.3801C156.849 29.4453 156.818 29.4779 156.818 29.4779C156.786 29.5106 156.722 29.5432 156.69 29.5432C156.658 29.5758 156.595 29.5758 156.563 29.5758H156.18C156.085 29.5758 156.021 29.5758 155.957 29.5432C155.926 29.5432 155.862 29.5106 155.798 29.4453C155.766 29.4127 155.703 29.3475 155.671 29.2823C155.607 29.2171 155.575 29.1192 155.511 29.0214L154.402 26.9234C154.338 26.793 154.275 26.6626 154.211 26.5321C154.147 26.4017 154.083 26.2386 154.052 26.1082H154.02C154.052 26.2712 154.052 26.4343 154.052 26.5973C154.052 26.7604 154.052 26.9234 154.052 27.1191V29.4453C154.052 29.4453 154.052 29.4779 154.052 29.5106C154.02 29.5106 154.02 29.5432 153.988 29.5432C153.956 29.5758 153.892 29.5758 153.86 29.5758C153.797 29.5758 153.733 29.5758 153.637 29.5758C153.574 29.5758 153.51 29.5758 153.446 29.5758C153.383 29.5758 153.351 29.5758 153.319 29.5432C153.287 29.5432 153.287 29.5106 153.255 29.5106C153.255 29.4779 153.255 29.4453 153.255 29.4453V25.4505C153.255 25.3527 153.287 25.2549 153.351 25.1897C153.414 25.157 153.478 25.1244 153.574 25.1244H154.052C154.147 25.1244 154.211 25.1244 154.275 25.157C154.338 25.157 154.402 25.1897 154.434 25.2223C154.466 25.2549 154.529 25.2875 154.561 25.3527C154.593 25.4179 154.657 25.4831 154.689 25.581L155.543 27.2169C155.607 27.3148 155.639 27.4126 155.703 27.5104C155.766 27.5757 155.798 27.6735 155.83 27.7713C155.894 27.8692 155.926 27.967 155.989 28.0648C156.021 28.1627 156.053 28.2279 156.117 28.3257C156.117 28.1626 156.085 27.9996 156.085 27.8365C156.085 27.6735 156.085 27.5104 156.085 27.3474V25.2494C156.085 25.2168 156.085 25.2168 156.117 25.1842C156.117 25.1842 156.149 25.1516 156.18 25.1516C156.212 25.119 156.244 25.119 156.308 25.119C156.372 25.119 156.435 25.119 156.499 25.119C156.595 25.119 156.658 25.119 156.69 25.119C156.754 25.119 156.786 25.119 156.818 25.1516C156.849 25.1516 156.881 25.1842 156.881 25.1842C156.881 25.2168 156.913 25.2168 156.913 25.2494V29.2497Z" fill="#231915"/>
<path fill-rule="evenodd" clip-rule="evenodd" d="M4.06665 4.97656C4.41705 4.97656 4.70374 5.27006 4.70374 5.6016V15.3304C4.70374 15.6565 4.41705 15.9555 4.06665 15.9555C3.71626 15.9555 3.46143 15.662 3.46143 15.3304V5.6016C3.46143 5.27006 3.71626 4.97656 4.06665 4.97656Z" fill="#F0873F"/>
</svg>
