<svg width="23" height="23" viewBox="0 0 23 23" fill="none" xmlns="http://www.w3.org/2000/svg">
<path fill-rule="evenodd" clip-rule="evenodd" d="M15.8125 19.4062H7.1875C6.61563 19.4062 6.06718 19.1791 5.6628 18.7747C5.25843 18.3703 5.03125 17.8219 5.03125 17.25V5.75C5.03125 5.17813 5.25843 4.62968 5.6628 4.2253C6.06718 3.82093 6.61563 3.59375 7.1875 3.59375H10.0625V7.1875C10.0625 8.33125 10.5169 9.42815 11.3256 10.2369C12.1344 11.0456 13.2313 11.5 14.375 11.5H17.9688V17.25C17.9688 17.8219 17.7416 18.3703 17.3372 18.7747C16.9328 19.1791 16.3844 19.4062 15.8125 19.4062ZM17.6856 9.34375C17.5905 9.17657 17.4735 9.02284 17.3377 8.88663L12.6759 4.22481C12.5397 4.08899 12.386 3.97199 12.2188 3.87694V7.1875C12.2188 7.75937 12.4459 8.30782 12.8503 8.7122C13.2547 9.11657 13.8031 9.34375 14.375 9.34375H17.6856ZM18.8614 7.36144C19.2621 7.76197 19.5799 8.23752 19.7967 8.76091C20.0135 9.28431 20.1251 9.84529 20.125 10.4118V17.25C20.125 18.3937 19.6706 19.4906 18.8619 20.2994C18.0531 21.1081 16.9562 21.5625 15.8125 21.5625H7.1875C6.04375 21.5625 4.94685 21.1081 4.1381 20.2994C3.32935 19.4906 2.875 18.3937 2.875 17.25V5.75C2.875 4.60625 3.32935 3.50935 4.1381 2.7006C4.94685 1.89185 6.04375 1.4375 7.1875 1.4375H11.1507C11.7172 1.43743 12.2782 1.54899 12.8016 1.7658C13.325 1.9826 13.8005 2.30041 14.2011 2.70106L18.86 7.36L18.8614 7.36144Z" fill="#7C838F"/>
</svg>
