<svg width="18" height="19" viewBox="0 0 18 19" fill="none" xmlns="http://www.w3.org/2000/svg">
<path d="M16.1111 9.5V14.2222C16.1111 16.0034 16.1111 16.8931 15.5577 17.4466C15.0042 18 14.1146 18 12.3333 18H3.36111C2.73491 18 2.13435 17.7512 1.69155 17.3084C1.24876 16.8657 1 16.2651 1 15.6389M16.1111 9.5C16.1111 11.2812 16.1111 12.1709 15.5577 12.7243C15.0042 13.2778 14.1146 13.2778 12.3333 13.2778H3.36111C2.73491 13.2778 2.13435 13.5265 1.69155 13.9693C1.24876 14.4121 1 15.0127 1 15.6389M16.1111 9.5V4.77778C16.1111 2.99656 16.1111 2.10689 15.5577 1.55344C15.0042 1 14.1146 1 12.3333 1H4.77778C2.99656 1 2.10689 1 1.55344 1.55344C1 2.10689 1 2.99656 1 4.77778V15.6389" stroke="#7C838F" stroke-width="2"/>
<path d="M5.72217 5.72223H11.3888" stroke="#7C838F" stroke-width="2" stroke-linecap="round"/>
</svg>
