<svg width="31" height="31" viewBox="0 0 31 31" fill="none" xmlns="http://www.w3.org/2000/svg">
<path fill-rule="evenodd" clip-rule="evenodd" d="M10.0106 9.68752C10.0106 8.96662 10.1526 8.25277 10.4284 7.58675C10.7043 6.92072 11.1087 6.31555 11.6184 5.8058C12.1282 5.29604 12.7334 4.89168 13.3994 4.61581C14.0654 4.33993 14.7793 4.19794 15.5002 4.19794C16.2211 4.19794 16.9349 4.33993 17.6009 4.61581C18.267 4.89168 18.8721 5.29604 19.3819 5.8058C19.8916 6.31555 20.296 6.92072 20.5719 7.58675C20.8478 8.25277 20.9897 8.96662 20.9897 9.68752C20.9897 11.1434 20.4114 12.5397 19.3819 13.5692C18.3524 14.5987 16.9561 15.1771 15.5002 15.1771C14.0442 15.1771 12.6479 14.5987 11.6184 13.5692C10.5889 12.5397 10.0106 11.1434 10.0106 9.68752ZM15.5002 6.13544C14.5581 6.13544 13.6546 6.50967 12.9885 7.17582C12.3223 7.84196 11.9481 8.74545 11.9481 9.68752C11.9481 10.6296 12.3223 11.5331 12.9885 12.1992C13.6546 12.8654 14.5581 13.2396 15.5002 13.2396C16.4422 13.2396 17.3457 12.8654 18.0119 12.1992C18.678 11.5331 19.0522 10.6296 19.0522 9.68752C19.0522 8.74545 18.678 7.84196 18.0119 7.17582C17.3457 6.50967 16.4422 6.13544 15.5002 6.13544ZM10.3335 19.0521C9.56271 19.0521 8.82349 19.3583 8.27847 19.9033C7.73344 20.4484 7.42725 21.1876 7.42725 21.9584V23.4929C7.42725 23.5161 7.44404 23.5368 7.46729 23.5406C12.7877 24.4086 18.214 24.4086 23.533 23.5406C23.5443 23.5388 23.5546 23.5329 23.5619 23.5242C23.5693 23.5154 23.5732 23.5043 23.5731 23.4929V21.9584C23.5731 21.1876 23.2669 20.4484 22.7219 19.9033C22.1768 19.3583 21.4376 19.0521 20.6668 19.0521H20.2277C20.193 19.0518 20.1586 19.0571 20.1256 19.0676L19.0083 19.4331C16.7288 20.1774 14.2716 20.1774 11.992 19.4331L10.8734 19.0676C10.8413 19.0573 10.8077 19.0521 10.774 19.0521H10.3335ZM5.48975 21.9584C5.48975 20.6737 6.00007 19.4417 6.90845 18.5333C7.81683 17.6249 9.04885 17.1146 10.3335 17.1146H10.7727C11.0116 17.1146 11.2493 17.1534 11.4753 17.2257L12.5939 17.5912C14.4824 18.2077 16.5179 18.2077 18.4064 17.5912L19.525 17.2257C19.751 17.1521 19.9887 17.1146 20.2264 17.1146H20.6668C21.9515 17.1146 23.1835 17.6249 24.0919 18.5333C25.0003 19.4417 25.5106 20.6737 25.5106 21.9584V23.4929C25.5106 24.4668 24.8053 25.296 23.8443 25.4523C18.3181 26.3545 12.6822 26.3545 7.156 25.4523C6.6909 25.3766 6.2679 25.1379 5.96264 24.7789C5.65737 24.4199 5.48975 23.9641 5.48975 23.4929V21.9584Z" fill="#7C838F"/>
</svg>
