<svg width="21" height="21" viewBox="0 0 21 21" fill="none" xmlns="http://www.w3.org/2000/svg">
<path fill-rule="evenodd" clip-rule="evenodd" d="M6.89062 7.21481C6.62955 7.21481 6.37917 7.1111 6.19457 6.9265C6.00996 6.74189 5.90625 6.49151 5.90625 6.23044V5.25C5.3841 5.25 4.88335 5.45742 4.51413 5.82663C4.14492 6.19585 3.9375 6.69661 3.9375 7.21875V8.53125H17.0625V7.21875C17.0625 6.69661 16.8551 6.19585 16.4859 5.82663C16.1167 5.45742 15.6159 5.25 15.0938 5.25V6.23438C15.0938 6.49545 14.99 6.74583 14.8054 6.93043C14.6208 7.11504 14.3704 7.21875 14.1094 7.21875C13.8483 7.21875 13.5979 7.11504 13.4133 6.93043C13.2287 6.74583 13.125 6.49545 13.125 6.23438V5.25H7.875V6.23044C7.875 6.49151 7.77129 6.74189 7.58668 6.9265C7.40208 7.1111 7.1517 7.21481 6.89062 7.21481ZM13.125 3.28125H7.875V2.29425C7.875 2.03318 7.77129 1.7828 7.58668 1.59819C7.40208 1.41359 7.1517 1.30988 6.89062 1.30988C6.62955 1.30988 6.37917 1.41359 6.19457 1.59819C6.00996 1.7828 5.90625 2.03318 5.90625 2.29425V3.28125C4.86196 3.28125 3.86044 3.69609 3.12202 4.43452C2.38359 5.17294 1.96875 6.17446 1.96875 7.21875V15.0938C1.96875 16.138 2.38359 17.1396 3.12202 17.878C3.86044 18.6164 4.86196 19.0312 5.90625 19.0312H15.0938C16.138 19.0312 17.1396 18.6164 17.878 17.878C18.6164 17.1396 19.0312 16.138 19.0312 15.0938V7.21875C19.0312 6.17446 18.6164 5.17294 17.878 4.43452C17.1396 3.69609 16.138 3.28125 15.0938 3.28125V2.29688C15.0938 2.0358 14.99 1.78542 14.8054 1.60082C14.6208 1.41621 14.3704 1.3125 14.1094 1.3125C13.8483 1.3125 13.5979 1.41621 13.4133 1.60082C13.2287 1.78542 13.125 2.0358 13.125 2.29688V3.28125ZM3.9375 10.5V15.0938C3.9375 15.6159 4.14492 16.1167 4.51413 16.4859C4.88335 16.8551 5.3841 17.0625 5.90625 17.0625H15.0938C15.6159 17.0625 16.1167 16.8551 16.4859 16.4859C16.8551 16.1167 17.0625 15.6159 17.0625 15.0938V10.5H3.9375Z" fill="#7C838F"/>
</svg>
