<svg width="28" height="28" viewBox="0 0 28 28" fill="none" xmlns="http://www.w3.org/2000/svg">
<path d="M19.8333 18.6667L24.5 14M24.5 14L19.8333 9.33335M24.5 14H8.16667M15.1667 18.6667V19.8334C15.1667 20.7616 14.7979 21.6518 14.1415 22.3082C13.4852 22.9646 12.5949 23.3334 11.6667 23.3334H7C6.07174 23.3334 5.1815 22.9646 4.52513 22.3082C3.86875 21.6518 3.5 20.7616 3.5 19.8334V8.16669C3.5 7.23843 3.86875 6.34819 4.52513 5.69181C5.1815 5.03544 6.07174 4.66669 7 4.66669H11.6667C12.5949 4.66669 13.4852 5.03544 14.1415 5.69181C14.7979 6.34819 15.1667 7.23843 15.1667 8.16669V9.33335" stroke="#7C838F" stroke-width="2" stroke-linecap="round" stroke-linejoin="round"/>
</svg>
