<svg width="24" height="24" viewBox="0 0 24 24" fill="none" xmlns="http://www.w3.org/2000/svg">
<path d="M11.3362 2.253C11.5192 2.09049 11.7554 2.00073 12.0002 2.00073C12.2449 2.00073 12.4812 2.09049 12.6642 2.253L21.6642 10.253C21.8523 10.4317 21.9636 10.6766 21.9745 10.9358C21.9855 11.1951 21.8952 11.4484 21.7228 11.6424C21.5505 11.8363 21.3094 11.9557 21.0507 11.9752C20.7919 11.9947 20.5357 11.9129 20.3362 11.747L20.0002 11.45V19C20.0002 19.5304 19.7895 20.0391 19.4144 20.4142C19.0393 20.7893 18.5306 21 18.0002 21H6.00017C5.46974 21 4.96103 20.7893 4.58596 20.4142C4.21088 20.0391 4.00017 19.5304 4.00017 19V11.45L3.66417 11.747C3.46463 11.9129 3.20842 11.9947 2.94967 11.9752C2.69092 11.9557 2.44989 11.8363 2.27749 11.6424C2.1051 11.4484 2.01484 11.1951 2.02579 10.9358C2.03674 10.6766 2.14804 10.4317 2.33617 10.253L11.3362 2.253ZM6.00017 9.67V19H9.00017V14C9.00017 13.7348 9.10553 13.4804 9.29306 13.2929C9.4806 13.1054 9.73495 13 10.0002 13H14.0002C14.2654 13 14.5197 13.1054 14.7073 13.2929C14.8948 13.4804 15.0002 13.7348 15.0002 14V19H18.0002V9.671L12.0002 4.338L6.00017 9.67ZM13.0002 19V15H11.0002V19H13.0002Z" fill="#7C838F"/>
</svg>
